<mxfile host="app.diagrams.net" agent="Mozilla/5.0 (Windows NT 10.0; Win64; x64) AppleWebKit/537.36 (KHTML, like Gecko) Chrome/134.0.0.0 Safari/537.36" version="26.1.3">
  <diagram name="Strona-1" id="rb4fvR4Zoptl1zjFdbuk">
    <mxGraphModel dx="1687" dy="878" grid="1" gridSize="10" guides="1" tooltips="1" connect="1" arrows="1" fold="1" page="1" pageScale="1" pageWidth="827" pageHeight="1169" math="0" shadow="0">
      <root>
        <mxCell id="0" />
        <mxCell id="1" parent="0" />
        <mxCell id="RtdFdGeEv9-8zjRsHrd_-1" value="Klient" style="shape=umlActor;verticalLabelPosition=bottom;verticalAlign=top;html=1;outlineConnect=0;" vertex="1" parent="1">
          <mxGeometry x="70" y="110" width="30" height="60" as="geometry" />
        </mxCell>
        <mxCell id="RtdFdGeEv9-8zjRsHrd_-3" value="Formularz zakupu biletu" style="shape=umlBoundary;whiteSpace=wrap;html=1;" vertex="1" parent="1">
          <mxGeometry x="230" y="80" width="100" height="80" as="geometry" />
        </mxCell>
        <mxCell id="RtdFdGeEv9-8zjRsHrd_-4" value="Przetwarzanie danych" style="ellipse;shape=umlControl;whiteSpace=wrap;html=1;" vertex="1" parent="1">
          <mxGeometry x="580" y="75" width="80" height="90" as="geometry" />
        </mxCell>
        <mxCell id="RtdFdGeEv9-8zjRsHrd_-5" value="Przetwarzanie płatności" style="ellipse;shape=umlControl;whiteSpace=wrap;html=1;" vertex="1" parent="1">
          <mxGeometry x="427" y="215" width="76" height="90" as="geometry" />
        </mxCell>
        <mxCell id="RtdFdGeEv9-8zjRsHrd_-6" value="Autoryzacja płatności" style="shape=umlBoundary;whiteSpace=wrap;html=1;" vertex="1" parent="1">
          <mxGeometry x="230" y="210" width="100" height="80" as="geometry" />
        </mxCell>
        <mxCell id="RtdFdGeEv9-8zjRsHrd_-7" value="Rejestracja płatności w systemie" style="ellipse;shape=umlControl;whiteSpace=wrap;html=1;" vertex="1" parent="1">
          <mxGeometry x="580" y="280" width="80" height="90" as="geometry" />
        </mxCell>
        <mxCell id="RtdFdGeEv9-8zjRsHrd_-8" value="Baza danych" style="ellipse;shape=umlEntity;whiteSpace=wrap;html=1;" vertex="1" parent="1">
          <mxGeometry x="700" y="395" width="80" height="80" as="geometry" />
        </mxCell>
        <mxCell id="RtdFdGeEv9-8zjRsHrd_-9" value="System poczty&lt;div&gt;elektronicznej&lt;/div&gt;" style="shape=umlActor;verticalLabelPosition=bottom;verticalAlign=top;html=1;" vertex="1" parent="1">
          <mxGeometry x="70" y="320" width="30" height="65" as="geometry" />
        </mxCell>
        <mxCell id="RtdFdGeEv9-8zjRsHrd_-10" value="Poczta" style="shape=umlBoundary;whiteSpace=wrap;html=1;" vertex="1" parent="1">
          <mxGeometry x="230" y="312.5" width="100" height="80" as="geometry" />
        </mxCell>
        <mxCell id="RtdFdGeEv9-8zjRsHrd_-12" value="Potwierdzenie kupna biletu" style="ellipse;shape=umlControl;whiteSpace=wrap;html=1;" vertex="1" parent="1">
          <mxGeometry x="420" y="385" width="90" height="100" as="geometry" />
        </mxCell>
        <mxCell id="RtdFdGeEv9-8zjRsHrd_-20" value="" style="endArrow=none;html=1;rounded=0;exitX=-0.04;exitY=0.538;exitDx=0;exitDy=0;exitPerimeter=0;" edge="1" parent="1" source="RtdFdGeEv9-8zjRsHrd_-6" target="RtdFdGeEv9-8zjRsHrd_-1">
          <mxGeometry width="50" height="50" relative="1" as="geometry">
            <mxPoint x="390" y="400" as="sourcePoint" />
            <mxPoint x="440" y="350" as="targetPoint" />
          </mxGeometry>
        </mxCell>
        <mxCell id="RtdFdGeEv9-8zjRsHrd_-21" value="System wiadomości&lt;div&gt;SMS&lt;/div&gt;" style="shape=umlActor;verticalLabelPosition=bottom;verticalAlign=top;html=1;outlineConnect=0;" vertex="1" parent="1">
          <mxGeometry x="110" y="500" width="30" height="60" as="geometry" />
        </mxCell>
        <mxCell id="RtdFdGeEv9-8zjRsHrd_-22" value="Wiadomości" style="shape=umlBoundary;whiteSpace=wrap;html=1;" vertex="1" parent="1">
          <mxGeometry x="230" y="490" width="100" height="80" as="geometry" />
        </mxCell>
        <mxCell id="RtdFdGeEv9-8zjRsHrd_-25" value="" style="endArrow=classic;html=1;rounded=0;entryX=-0.02;entryY=0.5;entryDx=0;entryDy=0;entryPerimeter=0;" edge="1" parent="1" source="RtdFdGeEv9-8zjRsHrd_-1" target="RtdFdGeEv9-8zjRsHrd_-3">
          <mxGeometry width="50" height="50" relative="1" as="geometry">
            <mxPoint x="120" y="130" as="sourcePoint" />
            <mxPoint x="440" y="150" as="targetPoint" />
          </mxGeometry>
        </mxCell>
        <mxCell id="RtdFdGeEv9-8zjRsHrd_-26" value="" style="endArrow=classic;html=1;rounded=0;" edge="1" parent="1" source="RtdFdGeEv9-8zjRsHrd_-22" target="RtdFdGeEv9-8zjRsHrd_-21">
          <mxGeometry width="50" height="50" relative="1" as="geometry">
            <mxPoint x="390" y="370" as="sourcePoint" />
            <mxPoint x="440" y="320" as="targetPoint" />
          </mxGeometry>
        </mxCell>
        <mxCell id="RtdFdGeEv9-8zjRsHrd_-27" value="" style="endArrow=classic;html=1;rounded=0;" edge="1" parent="1" source="RtdFdGeEv9-8zjRsHrd_-10" target="RtdFdGeEv9-8zjRsHrd_-9">
          <mxGeometry width="50" height="50" relative="1" as="geometry">
            <mxPoint x="390" y="370" as="sourcePoint" />
            <mxPoint x="440" y="320" as="targetPoint" />
          </mxGeometry>
        </mxCell>
        <mxCell id="RtdFdGeEv9-8zjRsHrd_-28" value="" style="endArrow=none;html=1;rounded=0;" edge="1" parent="1" source="RtdFdGeEv9-8zjRsHrd_-8" target="RtdFdGeEv9-8zjRsHrd_-7">
          <mxGeometry width="50" height="50" relative="1" as="geometry">
            <mxPoint x="390" y="370" as="sourcePoint" />
            <mxPoint x="646.7585892648976" y="328.4482365811218" as="targetPoint" />
          </mxGeometry>
        </mxCell>
        <mxCell id="RtdFdGeEv9-8zjRsHrd_-29" value="" style="endArrow=none;html=1;rounded=0;" edge="1" parent="1" source="RtdFdGeEv9-8zjRsHrd_-5" target="RtdFdGeEv9-8zjRsHrd_-4">
          <mxGeometry width="50" height="50" relative="1" as="geometry">
            <mxPoint x="430" y="355" as="sourcePoint" />
            <mxPoint x="480" y="305" as="targetPoint" />
          </mxGeometry>
        </mxCell>
        <mxCell id="RtdFdGeEv9-8zjRsHrd_-30" value="" style="endArrow=classic;html=1;rounded=0;" edge="1" parent="1" source="RtdFdGeEv9-8zjRsHrd_-12" target="RtdFdGeEv9-8zjRsHrd_-10">
          <mxGeometry width="50" height="50" relative="1" as="geometry">
            <mxPoint x="390" y="370" as="sourcePoint" />
            <mxPoint x="440" y="320" as="targetPoint" />
          </mxGeometry>
        </mxCell>
        <mxCell id="RtdFdGeEv9-8zjRsHrd_-31" value="" style="endArrow=classic;html=1;rounded=0;" edge="1" parent="1" source="RtdFdGeEv9-8zjRsHrd_-12" target="RtdFdGeEv9-8zjRsHrd_-22">
          <mxGeometry width="50" height="50" relative="1" as="geometry">
            <mxPoint x="390" y="370" as="sourcePoint" />
            <mxPoint x="440" y="320" as="targetPoint" />
          </mxGeometry>
        </mxCell>
        <mxCell id="RtdFdGeEv9-8zjRsHrd_-32" value="" style="endArrow=none;html=1;rounded=0;" edge="1" parent="1" source="RtdFdGeEv9-8zjRsHrd_-12" target="RtdFdGeEv9-8zjRsHrd_-7">
          <mxGeometry width="50" height="50" relative="1" as="geometry">
            <mxPoint x="390" y="370" as="sourcePoint" />
            <mxPoint x="589.6758163063478" y="324.3459842196637" as="targetPoint" />
          </mxGeometry>
        </mxCell>
        <mxCell id="RtdFdGeEv9-8zjRsHrd_-33" value="" style="endArrow=none;html=1;rounded=0;" edge="1" parent="1" source="RtdFdGeEv9-8zjRsHrd_-12" target="RtdFdGeEv9-8zjRsHrd_-8">
          <mxGeometry width="50" height="50" relative="1" as="geometry">
            <mxPoint x="390" y="370" as="sourcePoint" />
            <mxPoint x="440" y="320" as="targetPoint" />
          </mxGeometry>
        </mxCell>
        <mxCell id="RtdFdGeEv9-8zjRsHrd_-34" value="" style="endArrow=classic;html=1;rounded=0;" edge="1" parent="1" source="RtdFdGeEv9-8zjRsHrd_-4" target="RtdFdGeEv9-8zjRsHrd_-7">
          <mxGeometry width="50" height="50" relative="1" as="geometry">
            <mxPoint x="430" y="355" as="sourcePoint" />
            <mxPoint x="647.7596327834754" y="237.15871474216328" as="targetPoint" />
          </mxGeometry>
        </mxCell>
        <mxCell id="RtdFdGeEv9-8zjRsHrd_-35" value="" style="endArrow=classic;html=1;rounded=0;" edge="1" parent="1" source="RtdFdGeEv9-8zjRsHrd_-5" target="RtdFdGeEv9-8zjRsHrd_-7">
          <mxGeometry width="50" height="50" relative="1" as="geometry">
            <mxPoint x="390" y="400" as="sourcePoint" />
            <mxPoint x="440" y="350" as="targetPoint" />
          </mxGeometry>
        </mxCell>
        <mxCell id="RtdFdGeEv9-8zjRsHrd_-36" value="" style="endArrow=classic;html=1;rounded=0;" edge="1" parent="1" source="RtdFdGeEv9-8zjRsHrd_-6" target="RtdFdGeEv9-8zjRsHrd_-5">
          <mxGeometry width="50" height="50" relative="1" as="geometry">
            <mxPoint x="390" y="400" as="sourcePoint" />
            <mxPoint x="440" y="350" as="targetPoint" />
          </mxGeometry>
        </mxCell>
        <mxCell id="RtdFdGeEv9-8zjRsHrd_-37" value="" style="endArrow=classic;html=1;rounded=0;" edge="1" parent="1" source="RtdFdGeEv9-8zjRsHrd_-3" target="RtdFdGeEv9-8zjRsHrd_-4">
          <mxGeometry width="50" height="50" relative="1" as="geometry">
            <mxPoint x="390" y="400" as="sourcePoint" />
            <mxPoint x="440" y="350" as="targetPoint" />
          </mxGeometry>
        </mxCell>
        <mxCell id="RtdFdGeEv9-8zjRsHrd_-38" value="&lt;font style=&quot;font-size: 32px;&quot;&gt;Główny scenariusz&lt;/font&gt;" style="text;html=1;align=center;verticalAlign=middle;whiteSpace=wrap;rounded=0;" vertex="1" parent="1">
          <mxGeometry width="280" height="60" as="geometry" />
        </mxCell>
        <mxCell id="RtdFdGeEv9-8zjRsHrd_-40" value="&lt;font style=&quot;font-size: 32px;&quot;&gt;Scenariusz alternatywny&lt;/font&gt;" style="text;html=1;align=center;verticalAlign=middle;whiteSpace=wrap;rounded=0;" vertex="1" parent="1">
          <mxGeometry y="610" width="360" height="50" as="geometry" />
        </mxCell>
        <mxCell id="RtdFdGeEv9-8zjRsHrd_-41" value="Klient" style="shape=umlActor;verticalLabelPosition=bottom;verticalAlign=top;html=1;" vertex="1" parent="1">
          <mxGeometry x="50" y="820" width="30" height="60" as="geometry" />
        </mxCell>
        <mxCell id="RtdFdGeEv9-8zjRsHrd_-42" value="Sprzedawca" style="shape=umlActor;verticalLabelPosition=bottom;verticalAlign=top;html=1;" vertex="1" parent="1">
          <mxGeometry x="70" y="1050" width="30" height="60" as="geometry" />
        </mxCell>
        <mxCell id="RtdFdGeEv9-8zjRsHrd_-43" value="Oferta sprzedaży" style="shape=umlBoundary;whiteSpace=wrap;html=1;" vertex="1" parent="1">
          <mxGeometry x="200" y="680" width="100" height="80" as="geometry" />
        </mxCell>
        <mxCell id="RtdFdGeEv9-8zjRsHrd_-44" value="System sprzedaży" style="shape=umlBoundary;whiteSpace=wrap;html=1;" vertex="1" parent="1">
          <mxGeometry x="190" y="1040" width="100" height="80" as="geometry" />
        </mxCell>
        <mxCell id="RtdFdGeEv9-8zjRsHrd_-45" value="Wybór biletu" style="ellipse;shape=umlControl;whiteSpace=wrap;html=1;" vertex="1" parent="1">
          <mxGeometry x="379" y="680" width="70" height="80" as="geometry" />
        </mxCell>
        <mxCell id="RtdFdGeEv9-8zjRsHrd_-46" value="Baza danych" style="ellipse;shape=umlEntity;whiteSpace=wrap;html=1;" vertex="1" parent="1">
          <mxGeometry x="730" y="990" width="80" height="80" as="geometry" />
        </mxCell>
        <mxCell id="RtdFdGeEv9-8zjRsHrd_-47" value="Autoryzacja płatności" style="shape=umlBoundary;whiteSpace=wrap;html=1;" vertex="1" parent="1">
          <mxGeometry x="190" y="820" width="100" height="80" as="geometry" />
        </mxCell>
        <mxCell id="RtdFdGeEv9-8zjRsHrd_-48" value="Dokonanie płatności" style="ellipse;shape=umlControl;whiteSpace=wrap;html=1;" vertex="1" parent="1">
          <mxGeometry x="449" y="860" width="70" height="80" as="geometry" />
        </mxCell>
        <mxCell id="RtdFdGeEv9-8zjRsHrd_-50" value="" style="endArrow=none;html=1;rounded=0;" edge="1" parent="1" source="RtdFdGeEv9-8zjRsHrd_-41" target="RtdFdGeEv9-8zjRsHrd_-47">
          <mxGeometry width="50" height="50" relative="1" as="geometry">
            <mxPoint x="390" y="720" as="sourcePoint" />
            <mxPoint x="440" y="670" as="targetPoint" />
          </mxGeometry>
        </mxCell>
        <mxCell id="RtdFdGeEv9-8zjRsHrd_-51" value="" style="endArrow=classic;html=1;rounded=0;" edge="1" parent="1" source="RtdFdGeEv9-8zjRsHrd_-41" target="RtdFdGeEv9-8zjRsHrd_-43">
          <mxGeometry width="50" height="50" relative="1" as="geometry">
            <mxPoint x="390" y="720" as="sourcePoint" />
            <mxPoint x="440" y="670" as="targetPoint" />
          </mxGeometry>
        </mxCell>
        <mxCell id="RtdFdGeEv9-8zjRsHrd_-52" value="" style="endArrow=classic;html=1;rounded=0;" edge="1" parent="1" source="RtdFdGeEv9-8zjRsHrd_-47" target="RtdFdGeEv9-8zjRsHrd_-48">
          <mxGeometry width="50" height="50" relative="1" as="geometry">
            <mxPoint x="390" y="720" as="sourcePoint" />
            <mxPoint x="440" y="670" as="targetPoint" />
          </mxGeometry>
        </mxCell>
        <mxCell id="RtdFdGeEv9-8zjRsHrd_-53" value="" style="endArrow=classic;html=1;rounded=0;" edge="1" parent="1" source="RtdFdGeEv9-8zjRsHrd_-45" target="RtdFdGeEv9-8zjRsHrd_-48">
          <mxGeometry width="50" height="50" relative="1" as="geometry">
            <mxPoint x="390" y="720" as="sourcePoint" />
            <mxPoint x="440" y="670" as="targetPoint" />
          </mxGeometry>
        </mxCell>
        <mxCell id="RtdFdGeEv9-8zjRsHrd_-54" value="" style="endArrow=classic;html=1;rounded=0;" edge="1" parent="1" source="RtdFdGeEv9-8zjRsHrd_-43" target="RtdFdGeEv9-8zjRsHrd_-45">
          <mxGeometry width="50" height="50" relative="1" as="geometry">
            <mxPoint x="390" y="720" as="sourcePoint" />
            <mxPoint x="440" y="670" as="targetPoint" />
          </mxGeometry>
        </mxCell>
        <mxCell id="RtdFdGeEv9-8zjRsHrd_-55" value="Rejestracja płatności w systemie" style="ellipse;shape=umlControl;whiteSpace=wrap;html=1;" vertex="1" parent="1">
          <mxGeometry x="610" y="855" width="80" height="90" as="geometry" />
        </mxCell>
        <mxCell id="RtdFdGeEv9-8zjRsHrd_-56" value="" style="endArrow=classic;html=1;rounded=0;" edge="1" parent="1" source="RtdFdGeEv9-8zjRsHrd_-48" target="RtdFdGeEv9-8zjRsHrd_-55">
          <mxGeometry width="50" height="50" relative="1" as="geometry">
            <mxPoint x="390" y="820" as="sourcePoint" />
            <mxPoint x="440" y="770" as="targetPoint" />
          </mxGeometry>
        </mxCell>
        <mxCell id="RtdFdGeEv9-8zjRsHrd_-57" value="" style="endArrow=none;html=1;rounded=0;" edge="1" parent="1" source="RtdFdGeEv9-8zjRsHrd_-55" target="RtdFdGeEv9-8zjRsHrd_-46">
          <mxGeometry width="50" height="50" relative="1" as="geometry">
            <mxPoint x="390" y="820" as="sourcePoint" />
            <mxPoint x="440" y="770" as="targetPoint" />
          </mxGeometry>
        </mxCell>
        <mxCell id="RtdFdGeEv9-8zjRsHrd_-59" value="Bilet" style="shape=umlBoundary;whiteSpace=wrap;html=1;" vertex="1" parent="1">
          <mxGeometry x="190" y="920" width="100" height="80" as="geometry" />
        </mxCell>
        <mxCell id="RtdFdGeEv9-8zjRsHrd_-60" value="" style="endArrow=classic;html=1;rounded=0;" edge="1" parent="1" source="RtdFdGeEv9-8zjRsHrd_-59" target="RtdFdGeEv9-8zjRsHrd_-41">
          <mxGeometry width="50" height="50" relative="1" as="geometry">
            <mxPoint x="390" y="1020" as="sourcePoint" />
            <mxPoint x="440" y="970" as="targetPoint" />
          </mxGeometry>
        </mxCell>
        <mxCell id="RtdFdGeEv9-8zjRsHrd_-65" value="" style="endArrow=none;html=1;rounded=0;" edge="1" parent="1" source="RtdFdGeEv9-8zjRsHrd_-44" target="RtdFdGeEv9-8zjRsHrd_-42">
          <mxGeometry width="50" height="50" relative="1" as="geometry">
            <mxPoint x="560" y="930" as="sourcePoint" />
            <mxPoint x="610" y="880" as="targetPoint" />
          </mxGeometry>
        </mxCell>
        <mxCell id="RtdFdGeEv9-8zjRsHrd_-66" value="Potwierdzenie sprzedaży" style="ellipse;shape=umlControl;whiteSpace=wrap;html=1;" vertex="1" parent="1">
          <mxGeometry x="368" y="970" width="81" height="90" as="geometry" />
        </mxCell>
        <mxCell id="RtdFdGeEv9-8zjRsHrd_-67" value="" style="endArrow=none;html=1;rounded=0;" edge="1" parent="1" source="RtdFdGeEv9-8zjRsHrd_-44" target="RtdFdGeEv9-8zjRsHrd_-66">
          <mxGeometry width="50" height="50" relative="1" as="geometry">
            <mxPoint x="560" y="930" as="sourcePoint" />
            <mxPoint x="610" y="880" as="targetPoint" />
          </mxGeometry>
        </mxCell>
        <mxCell id="RtdFdGeEv9-8zjRsHrd_-68" value="" style="endArrow=classic;html=1;rounded=0;" edge="1" parent="1" source="RtdFdGeEv9-8zjRsHrd_-48" target="RtdFdGeEv9-8zjRsHrd_-66">
          <mxGeometry width="50" height="50" relative="1" as="geometry">
            <mxPoint x="560" y="930" as="sourcePoint" />
            <mxPoint x="610" y="880" as="targetPoint" />
          </mxGeometry>
        </mxCell>
        <mxCell id="RtdFdGeEv9-8zjRsHrd_-69" value="" style="endArrow=classic;html=1;rounded=0;" edge="1" parent="1" source="RtdFdGeEv9-8zjRsHrd_-66" target="RtdFdGeEv9-8zjRsHrd_-59">
          <mxGeometry width="50" height="50" relative="1" as="geometry">
            <mxPoint x="560" y="930" as="sourcePoint" />
            <mxPoint x="610" y="880" as="targetPoint" />
          </mxGeometry>
        </mxCell>
      </root>
    </mxGraphModel>
  </diagram>
</mxfile>
